<?xml version="1.0" encoding="utf-8"?>
<svg version="1.1" width="773" height="540" viewBox="0 0 773 540"
	xmlns="http://www.w3.org/2000/svg"
	xmlns:xlink="http://www.w3.org/1999/xlink"
	xml:space="preserve"
><title>LIFO (Last In, First Out) Stack</title>
<style type="text/css">
	line{
		fill: none;
	}
	line.grey{
		stroke: #c3c3c3;
	}
	rect{
		fill: #fff;
		stroke: #000;
	}
	path{
		fill: none;
		stroke: #000;
		stroke-miterlimit: 10;
	}
	text{
		font-family: Helvetica, Arial, sans-serif;
		font-size: 29px;
		text-anchor: middle;
	}
	.action{
		font-size: 25px;
	}
	.step-number{
		fill: #c3c3c3;
		text-anchor: start;
	}
</style>
<line y1="273.5" x2="773" y2="273.5" class="grey"/>
<g id="step-1">
	<text class="step-number" y="24.68">1</text>
	<text class="action" x="71.2252" y="192">Push</text>
	<g><rect x="36.5"  y="127.5" width="41" height="31"/><text x="57.1838"  y="153.82">2</text></g>
	<g><rect x="109.5" y="206.5" width="41" height="31"/><text x="130.1837" y="232.82">1</text></g>
	<g>
		<path d="M82.0328,144.5119c23.6673,4.2083,41.2142,15.0694,46.8593,38.8678"/>
		<polygon points="129.73,202.2001 124.0667,183.0401 135.3933,183.0401"/>
	</g>
</g>
<g id="step-2">
	<line class="grey" x1="153.5" y1="4" x2="153.5" y2="269"/>
	<text class="step-number" x="154.9812" y="23.68">2</text>
	<text class="action" x="226.2252" y="161">Push</text>
	<g><rect x="191.5" y="96.5"  width="41" height="31"/><text x="212.1837" y="122.82">3</text></g>
	<g><rect x="264.5" y="175.5" width="41" height="31"/><text x="285.1837" y="201.82">2</text></g>
	<g><rect x="264.5" y="206.5" width="41" height="31"/><text x="285.1837" y="232.82">1</text></g>
	<g>
		<path d="M236.7776,113.4539c23.6672,4.2083,41.2142,15.0694,46.8593,38.8678"/>
		<polygon points="284.4748,171.1422 278.8115,151.9821 290.1381,151.9821"/>
	</g>
</g>
<g id="step-3">
	<line class="grey" x1="308.5" y1="4" x2="308.5" y2="269"/>
	<text class="step-number" x="309.9812" y="23.68">3</text>
	<text class="action" x="381.5331" y="129.2554">Push</text>
	<g><rect x="346.5" y="65.5"  width="41" height="31"/><text x="366.1837" y="91.82">4</text></g>
	<g><rect x="419.5" y="175.5" width="41" height="31"/><text x="440.1837" y="201.82">2</text></g>
	<g><rect x="419.5" y="144.5" width="41" height="31"/><text x="440.1837" y="170.82">3</text></g>
	<g><rect x="419.5" y="206.5" width="41" height="31"/><text x="440.1837" y="232.82">1</text></g>
	<g>
		<path d="M392.0672,82.396c23.6672,4.2083,41.2142,15.0694,46.8593,38.8678"/>
		<polygon points="439.7645,140.0842 434.1012,120.9242 445.4278,120.9242"/>
	</g>
</g>
<g id="step-4">
	<line class="grey" x1="463.5" y1="4" x2="463.5" y2="269"/>
	<text class="step-number" x="465.9812" y="23.68">4</text>
	<text class="action" x="536.8228" y="98.7423">Push</text>
	<g><rect x="574.5" y="113.5" width="41" height="31"/><text x="594.1837" y="139.82">4</text></g>
	<g><rect x="502.5" y="33.5"  width="41" height="31"/><text x="522.1837" y="59.82">5</text></g>
	<g><rect x="574.5" y="175.5" width="41" height="31"/><text x="595.1837" y="201.82">2</text></g>
	<g><rect x="574.5" y="144.5" width="41" height="31"/><text x="595.1837" y="170.82">3</text></g>
	<g><rect x="574.5" y="206.5" width="41" height="31"/><text x="595.1837" y="232.82">1</text></g>
	<g>
		<path d="M546.812,51.3381c23.6672,4.2083,41.2142,15.0694,46.8594,38.8678"/>
		<polygon points="594.5093,109.0263 588.8459,89.8662 600.1726,89.8662"/>
	</g>
</g>
<g id="step-5">
	<line class="grey" x1="618.5" y1="4" x2="618.5" y2="269"/>
	<text class="step-number" x="619.9812" y="22.68">5</text>
	<text class="action" x="691.5676" y="67.6844">Push</text>
	<g><rect x="656.5" y="3.5"   width="41" height="31"/><text x="677.1837" y="29.82">6</text></g>
	<g><rect x="729.5" y="113.5" width="41" height="31"/><text x="749.1837" y="139.82">4</text></g>
	<g><rect x="729.5" y="82.5"  width="41" height="31"/><text x="750.1837" y="108.82">5</text></g>
	<g><rect x="729.5" y="175.5" width="41" height="31"/><text x="750.1837" y="201.82">2</text></g>
	<g><rect x="729.5" y="144.5" width="41" height="31"/><text x="750.1837" y="170.82">3</text></g>
	<g><rect x="729.5" y="206.5" width="41" height="31"/><text x="750.1837" y="232.82">1</text></g>
	<g>
		<path d="M702.1017,20.2801c23.6673,4.2083,41.2142,15.0694,46.8594,38.8678"/>
		<polygon points="749.799,77.9684 744.1356,58.8083 755.4623,58.8083"/>
	</g>
</g>
<g id="step-6">
	<text class="step-number" x="0.9812" y="297.68">6</text>
	<text class="action" x="81.2252" y="332.1">Pop</text>
	<g><rect x="109.5" y="278.5" width="41" height="31"/><text x="130.184" y="304.82">6</text></g>
	<g><rect x="36.5"  y="380.5" width="41" height="31"/><text x="56.1837" y="406.82">4</text></g>
	<g><rect x="36.5"  y="349.5" width="41" height="31"/><text x="57.1837" y="375.82">5</text></g>
	<g><rect x="36.5"  y="442.5" width="41" height="31"/><text x="57.1837" y="468.82">2</text></g>
	<g><rect x="36.5"  y="411.5" width="41" height="31"/><text x="57.1837" y="437.82">3</text></g>
	<g><rect x="36.5"  y="473.5" width="41" height="31"/><text x="57.1837" y="499.82">1</text></g>
	<g>
		<path d="M38.5335,342.8468c3.9504-23.9746,15.4857-47.8593,53.0821-47.8593"/>
		<polygon points="107.4233,295.6633 89,301.3266 89,290"/>
	</g>
</g>
<g id="step-7">
	<line class="grey" x1="153.5" y1="278" x2="153.5" y2="537"/>
	<text class="step-number" x="154.9812" y="297.68">7</text>
	<text class="action" x="237" y="362.61">Pop</text>
	<g><rect x="264.5" y="309.5" width="41" height="31"/><text x="285.1836" y="334.82">5</text></g>
	<g><rect x="191.5" y="380.5" width="41" height="31"/><text x="211.1838" y="406.82">4</text></g>
	<g><rect x="191.5" y="442.5" width="41" height="31"/><text x="212.1838" y="468.82">2</text></g>
	<g><rect x="191.5" y="411.5" width="41" height="31"/><text x="212.1838" y="437.82">3</text></g>
	<g><rect x="191.5" y="473.5" width="41" height="31"/><text x="212.1838" y="499.82">1</text></g>
	<g>
		<path d="M193.8232,373.9047c3.9503-23.9745,15.4857-47.8593,53.0821-47.8593"/>
		<polygon points="262.713,326.7213 244.2897,332.3846 244.2897,321.0579"/>
	</g>
</g>
<g id="step-8">
	<line class="grey" x1="308.5" y1="278" x2="308.5" y2="537"/>
	<text class="step-number" x="309.9812" y="298.68">8</text>
	<text class="action" x="391" y="393.61">Pop</text>
	<g><rect x="420.1" y="340.8" width="41" height="31"/><text x="439.757" y="367.1">4</text></g>
	<g><rect x="346.5" y="442.5" width="41" height="31"/><text x="367.1838" y="468.82">2</text></g>
	<g><rect x="346.5" y="411.5" width="41" height="31"/><text x="367.1838" y="437.82">3</text></g>
	<g><rect x="346.5" y="473.5" width="41" height="31"/><text x="367.1838" y="499.82">1</text></g>
	<g>
		<path d="M348.8232,404.9047c3.9503-23.9745,15.4857-47.8593,53.0821-47.8593"/>
		<polygon points="417.713,357.7213 399.2897,363.3846 399.2897,352.0579"/>
	</g>
</g>
<g id="step-9">
	<line class="grey" x1="463.5" y1="278" x2="463.5" y2="537"/>
	<text class="step-number" x="464.9812" y="299.68">9</text>
	<text class="action" x="546" y="424.61">Pop</text>
	<g><rect x="574.5" y="371.5" width="41" height="31"/><text x="594.1837" y="397.82">3</text></g>
	<g><rect x="501.5" y="442.5" width="41" height="31"/><text x="522.1837" y="468.82">2</text></g>
	<g><rect x="501.5" y="473.5" width="41" height="31"/><text x="522.1837" y="499.82">1</text></g>
	<g>
		<path d="M503.8232,435.9047c3.9503-23.9745,15.4857-47.8593,53.0821-47.8593"/>
		<polygon points="572.713,388.7213 554.2897,394.3846 554.2897,383.0579"/>
	</g>
</g>
<g id="step-10">
	<line class="grey" x1="618.5" y1="278" x2="618.5" y2="537"/>
	<text class="step-number" x="616.9812" y="299.68">10</text>
	<text class="action" x="700" y="454.61">Pop</text>
	<g><rect x="655.5" y="472.5" width="41" height="31"/><text x="676.1837" y="498.82">1</text></g>
	<g><rect x="728.5" y="401.5" width="41" height="31"/><text x="749.1837" y="427.82">2</text></g>
	<g>
		<path d="M657.8231,465.9047c3.9504-23.9745,15.4857-47.8593,53.0822-47.8593"/>
		<polygon points="726.713,418.7213 708.2897,424.3846 708.2897,413.0579"/>
	</g>
</g>
</svg>
